<?xml version="1.0" standalone="no"?>
<!DOCTYPE svg PUBLIC "-//W3C//DTD SVG 20010904//EN"
 "http://www.w3.org/TR/2001/REC-SVG-20010904/DTD/svg10.dtd">
<svg version="1.0" xmlns="http://www.w3.org/2000/svg"
 width="1280.000000pt" height="1280.000000pt" viewBox="0 0 1280.000000 1280.000000"
 preserveAspectRatio="xMidYMid meet">
<metadata>
Created by potrace 1.14, written by Peter Selinger 2001-2017
</metadata>
<g transform="translate(0.000000,1280.000000) scale(0.100000,-0.100000)"
fill="#000000" stroke="none">
<path d="M8624 10582 c-38 -13 -76 -30 -85 -38 -8 -8 -19 -14 -24 -14 -10 0
-93 -67 -118 -95 -66 -74 -162 -250 -201 -366 -34 -104 -50 -214 -51 -349 0
-74 3 -153 6 -175 29 -177 76 -268 164 -309 29 -14 133 -43 330 -93 33 -8 67
-17 75 -20 8 -4 20 -7 25 -8 26 -7 266 -70 397 -106 81 -22 155 -42 165 -44
10 -3 37 -9 61 -15 94 -23 197 7 268 78 42 42 54 65 89 163 94 268 112 446 60
576 -38 95 -97 197 -155 268 -53 66 -219 224 -290 276 -167 124 -352 241 -420
264 -3 1 -12 4 -20 7 -88 34 -181 34 -276 0z m402 -457 c102 -30 346 -190 458
-301 70 -69 123 -139 158 -208 57 -112 56 -176 -5 -374 -35 -113 -65 -159
-122 -186 -67 -32 -79 -30 -377 49 -10 3 -28 7 -39 10 -12 2 -61 15 -108 29
-47 13 -140 38 -206 56 -66 18 -131 39 -145 47 -36 21 -65 69 -80 133 -24 104
-26 115 -24 172 5 162 40 280 117 401 48 74 92 114 162 147 91 42 135 48 211
25z"/>
<path d="M3186 10316 c-187 -63 -300 -232 -290 -432 6 -112 49 -207 133 -290
78 -77 158 -112 275 -118 247 -14 450 188 441 439 -6 148 -64 256 -187 349
-95 71 -250 93 -372 52z"/>
<path d="M4599 10335 c-2 -2 -29 -6 -59 -10 -210 -26 -384 -162 -441 -346 -10
-33 -21 -72 -24 -87 -8 -43 -16 -240 -19 -452 l-2 -195 -110 0 c-60 -1 -114
-4 -119 -7 -11 -7 -13 -537 -2 -554 3 -5 55 -9 116 -9 70 0 111 -3 112 -10 1
-5 2 -476 3 -1045 l1 -1035 333 -1 332 -1 1 31 c0 17 1 488 2 1046 l2 1015
210 0 210 0 0 278 c0 176 -3 281 -10 285 -5 3 -100 6 -210 7 l-200 0 0 189 c0
215 9 269 51 303 54 42 177 50 309 19 11 -3 35 -8 53 -12 l32 -6 0 76 c1 42 1
156 1 253 l1 177 -69 23 c-58 19 -125 36 -233 59 -29 6 -266 14 -271 9z"/>
<path d="M5619 10205 c0 -11 -1 -232 -1 -491 l0 -470 -172 0 -171 0 0 -287 0
-287 171 0 171 0 0 -1042 0 -1043 314 -2 c173 -1 323 0 334 2 20 4 20 12 19
1027 -1 563 0 1031 3 1041 4 15 22 17 198 17 l194 0 -2 287 -2 286 -196 0
-196 0 1 489 c1 268 -1 488 -4 489 -3 0 -152 1 -333 2 -321 2 -327 2 -328 -18z"/>
<path d="M11677 9774 c-1 -1 -40 -5 -87 -8 -105 -8 -177 -17 -260 -31 -175
-31 -437 -132 -498 -192 -7 -7 -17 -13 -21 -13 -4 0 -33 -24 -63 -52 -91 -85
-155 -237 -204 -483 -30 -150 -23 -215 32 -298 52 -79 104 -103 409 -183 120
-31 253 -67 395 -105 19 -5 42 -11 51 -14 10 -2 66 -17 125 -33 181 -49 188
-51 234 -56 165 -19 397 259 493 595 57 198 58 425 1 570 -59 149 -176 258
-311 290 -37 9 -288 19 -296 13z m-59 -343 c12 -6 22 -9 22 -6 0 11 86 -49
113 -79 16 -17 43 -60 60 -96 29 -59 32 -75 34 -170 4 -184 -46 -336 -158
-475 -55 -70 -85 -94 -141 -116 -46 -18 -59 -16 -318 56 -74 20 -151 40 -170
45 -123 29 -310 83 -335 97 -34 18 -71 56 -90 94 -32 60 19 315 84 419 56 91
207 173 386 211 65 13 65 14 170 24 39 4 71 8 72 9 10 8 253 -3 271 -13z"/>
<path d="M10060 9702 c-14 -1 -54 -17 -90 -35 -51 -25 -64 -36 -62 -52 7 -50
2 -175 -8 -220 -7 -27 -14 -59 -16 -70 -2 -11 -12 -49 -23 -85 -51 -172 -86
-238 -148 -279 -18 -11 -33 -25 -33 -29 0 -13 54 -69 80 -82 20 -11 86 -32
140 -44 8 -2 76 -20 150 -40 74 -21 142 -39 150 -41 8 -2 38 -10 66 -18 28 -7
67 -12 87 -12 37 2 97 23 97 34 0 3 -9 31 -21 61 -21 55 -22 89 -4 200 18 117
90 323 135 390 50 73 47 90 -25 168 -56 61 -141 111 -235 138 -51 15 -181 24
-240 16z"/>
<path d="M7226 9332 c-110 -415 -136 -513 -147 -552 -7 -25 -14 -49 -15 -55
-1 -5 -12 -46 -24 -90 -42 -153 -69 -259 -67 -260 7 -4 140 -41 322 -89 116
-31 226 -60 245 -66 51 -15 501 -135 660 -176 74 -19 142 -37 150 -41 8 -3 23
-8 33 -10 10 -1 57 -14 105 -27 48 -13 101 -27 117 -32 17 -4 32 -8 35 -9 3
-1 19 -5 35 -10 17 -4 138 -37 270 -72 132 -35 248 -66 258 -69 9 -2 25 -6 35
-8 9 -3 32 -9 50 -15 17 -5 32 -7 32 -4 0 3 6 1 13 -5 6 -5 26 -13 42 -16 17
-3 57 -12 90 -22 33 -9 67 -17 76 -19 14 -3 28 40 80 233 34 130 87 327 116
437 30 110 56 209 58 220 3 11 13 50 24 87 13 45 16 70 9 74 -10 6 -126 39
-175 49 -12 3 -88 23 -170 46 -81 22 -155 42 -163 44 -71 19 -187 50 -245 65
-38 10 -119 31 -180 48 -231 62 -871 234 -885 237 -8 2 -91 24 -185 50 -93 25
-219 59 -280 75 -60 16 -151 40 -202 54 l-91 24 -26 -96z"/>
<path d="M1064 9299 c-11 -3 -37 -9 -59 -12 -78 -12 -182 -47 -281 -97 -330
-162 -578 -475 -662 -835 -37 -156 -43 -208 -46 -371 -10 -465 147 -834 469
-1108 33 -28 62 -54 65 -57 12 -14 111 -74 190 -115 76 -38 233 -91 300 -99
14 -2 41 -6 60 -10 60 -11 261 -13 345 -4 116 13 255 53 347 99 69 35 131 73
148 90 3 3 21 17 40 31 19 15 52 42 72 62 21 19 39 32 41 29 2 -4 3 -24 1 -44
-10 -223 -32 -337 -79 -420 -49 -87 -162 -173 -300 -230 -59 -24 -228 -48
-350 -50 -22 -1 -185 13 -207 17 -137 26 -286 93 -362 164 l-51 48 -360 -2
c-198 -1 -363 -3 -367 -3 -8 -2 24 -87 67 -173 75 -152 200 -301 340 -406 119
-90 324 -182 475 -214 25 -5 54 -11 65 -14 11 -2 40 -7 65 -10 25 -3 68 -9 95
-12 66 -9 436 -10 500 -1 28 4 68 10 90 13 99 14 229 48 320 84 47 19 160 77
163 84 2 4 8 7 14 7 34 0 308 240 308 270 0 5 6 15 13 22 17 17 87 136 87 149
0 5 4 17 10 27 32 57 90 263 105 377 3 28 9 64 12 80 3 17 7 604 10 1305 l4
1275 -333 -1 -333 0 -1 -140 c-1 -76 -2 -141 -3 -143 -1 -3 -78 57 -115 91
-35 32 -150 105 -221 141 -85 43 -199 81 -303 101 -79 15 -352 19 -388 5z
m512 -627 c278 -58 488 -282 541 -577 9 -51 10 -234 1 -300 -41 -311 -282
-558 -587 -600 -55 -8 -207 -8 -241 0 -14 3 -38 8 -55 11 -16 2 -55 14 -85 25
-261 96 -436 324 -468 612 -37 334 104 618 382 767 99 53 212 77 346 75 63 -2
138 -7 166 -13z"/>
<path d="M2991 9240 c-4 -3 -7 -601 -6 -1330 l0 -1325 335 0 335 0 0 1323 c0
851 -3 1326 -10 1330 -11 7 -644 9 -654 2z"/>
<path d="M10235 8617 c-5 -15 -84 -309 -90 -334 -2 -10 -12 -45 -21 -78 -9
-33 -18 -67 -20 -75 -2 -8 -15 -58 -29 -110 -14 -52 -28 -104 -30 -114 -2 -10
-15 -58 -29 -105 -13 -47 -27 -102 -31 -121 -4 -19 -10 -39 -14 -45 -4 -5 -8
-22 -10 -37 -2 -24 2 -28 36 -37 21 -5 65 -17 98 -26 33 -9 67 -17 76 -20 9
-2 34 -9 55 -15 22 -6 55 -15 74 -20 19 -4 71 -17 115 -29 118 -33 175 -48
320 -87 72 -19 137 -37 145 -39 8 -2 76 -20 150 -40 74 -20 201 -54 282 -76
81 -22 155 -42 165 -44 10 -2 128 -33 263 -70 351 -95 578 -156 630 -169 8 -2
35 -9 60 -16 88 -24 88 -24 99 17 5 21 19 72 30 113 10 41 35 134 54 205 39
143 87 322 92 345 2 8 11 40 20 70 8 30 17 64 20 75 3 11 16 61 29 110 14 50
21 93 18 96 -4 3 -36 14 -72 23 -36 10 -81 22 -100 27 -19 5 -42 11 -50 13 -8
2 -76 20 -150 40 -74 21 -142 39 -150 41 -8 1 -60 15 -115 30 -55 15 -130 35
-168 45 -37 10 -68 18 -70 18 -1 1 -9 3 -17 5 -8 3 -51 14 -95 26 -187 49
-534 142 -580 156 -55 16 -139 37 -142 37 -2 -1 -17 4 -35 9 -18 6 -44 12 -58
15 -14 2 -36 9 -50 14 -14 5 -78 23 -142 40 -147 37 -310 81 -451 119 -77 21
-109 26 -112 18z"/>
<path d="M7101 7832 c-56 -213 -105 -398 -108 -411 -2 -14 -6 -28 -9 -33 -3
-4 -12 -34 -20 -65 -28 -108 -73 -278 -139 -523 -36 -135 -84 -312 -106 -395
-22 -82 -53 -199 -70 -260 -16 -60 -31 -117 -33 -125 -2 -8 -14 -51 -26 -95
-24 -90 -29 -110 -36 -144 -3 -13 -9 -32 -15 -43 -5 -10 -8 -18 -5 -18 3 0 0
-15 -6 -32 -9 -31 -94 -344 -103 -378 -26 -109 -58 -229 -66 -243 -11 -20 -16
-17 91 -46 41 -11 111 -29 155 -41 44 -12 87 -23 95 -25 8 -2 74 -20 145 -39
218 -60 574 -155 635 -171 8 -2 56 -15 105 -28 50 -13 144 -39 210 -56 66 -18
145 -39 175 -47 30 -8 96 -26 145 -39 50 -13 117 -31 150 -40 55 -15 105 -29
145 -40 8 -2 60 -16 115 -31 168 -46 157 -48 179 38 11 40 21 78 22 83 2 13
111 420 124 465 12 40 59 218 64 240 2 8 22 83 44 165 23 83 73 269 112 415
39 146 83 307 96 358 14 51 27 100 29 110 2 9 27 103 55 207 29 105 54 197 56
205 7 31 93 346 103 378 5 18 10 36 11 40 2 18 16 69 61 237 27 99 49 183 49
186 0 7 -75 34 -120 43 -25 5 -224 58 -360 96 -41 11 -86 23 -100 26 -14 2
-47 11 -75 19 -27 8 -93 26 -145 40 -52 14 -120 32 -150 40 -166 45 -357 96
-370 99 -8 2 -22 6 -30 9 -14 5 -74 21 -124 32 -10 2 -44 12 -75 21 -31 9 -64
18 -73 20 -10 2 -26 6 -37 8 -10 2 -49 13 -87 25 -56 16 -204 56 -364 96 -14
4 -31 9 -38 11 -7 2 -14 4 -17 5 -2 0 -37 9 -77 20 -40 10 -75 19 -78 19 -3 0
-52 -174 -109 -388z"/>
<path d="M9891 7328 c-24 -90 -59 -219 -78 -288 -19 -69 -36 -132 -38 -140 -1
-8 -30 -116 -63 -240 -34 -124 -70 -261 -82 -305 -12 -44 -32 -122 -46 -174
-14 -51 -28 -105 -30 -119 -3 -14 -7 -29 -10 -34 -3 -5 -23 -77 -45 -161 -22
-83 -45 -168 -50 -187 -5 -19 -11 -42 -13 -50 -2 -8 -23 -85 -46 -170 -23 -85
-43 -162 -45 -170 -2 -8 -29 -109 -60 -225 -140 -516 -187 -692 -191 -721 -5
-31 -5 -31 58 -48 35 -9 113 -29 173 -45 179 -48 309 -83 325 -87 18 -4 47
-12 200 -54 126 -34 142 -38 168 -44 32 -9 259 -70 357 -97 39 -11 81 -22 95
-25 14 -3 74 -19 134 -35 59 -17 116 -32 126 -34 9 -2 48 -12 86 -23 38 -11
175 -48 304 -82 129 -34 243 -64 253 -66 9 -3 17 -2 18 3 1 15 7 38 33 133 14
52 35 129 46 170 11 41 36 134 55 207 20 72 38 140 40 150 2 10 14 52 25 93
12 41 23 82 25 90 3 16 34 134 65 245 10 39 26 97 35 130 9 33 18 67 20 75 5
21 46 172 105 390 27 102 52 193 55 203 2 10 14 52 25 95 12 42 23 84 25 92 2
8 8 35 15 60 7 25 14 52 16 60 2 8 10 40 19 70 9 30 18 63 20 72 7 33 77 293
97 362 11 38 21 76 23 85 2 9 9 36 16 61 7 25 14 52 15 60 2 8 7 31 13 50 38
130 58 211 51 215 -4 2 -24 8 -46 14 -21 5 -113 30 -204 54 -91 25 -210 57
-265 72 -55 15 -125 34 -155 42 -30 8 -62 16 -70 18 -8 2 -40 11 -70 19 -48
13 -352 94 -755 202 -124 34 -222 60 -255 68 -8 2 -99 27 -201 54 -102 28
-196 53 -210 56 -13 3 -33 8 -44 11 -19 6 -24 -7 -64 -157z"/>
<path d="M1230 4098 l0 -1248 118 0 117 0 0 448 c0 487 7 629 32 707 4 11 8
27 9 35 2 8 21 52 44 98 86 174 276 317 448 338 164 19 293 -9 390 -86 86 -68
154 -204 168 -336 11 -116 12 -133 13 -676 l1 -528 115 0 c112 0 115 1 116 23
0 12 1 245 1 517 0 600 -6 699 -51 860 -76 269 -335 453 -626 445 -246 -7
-449 -111 -626 -323 l-36 -42 1 501 c1 324 -3 503 -9 507 -5 4 -58 7 -117 8
l-108 1 0 -1249z"/>
<path d="M463 4685 c-29 -7 -53 -11 -53 -9 0 2 -31 -13 -69 -32 -124 -63 -221
-184 -249 -311 -12 -54 -8 -199 7 -249 49 -158 156 -262 406 -394 261 -139
336 -213 348 -344 11 -116 -59 -228 -179 -287 -58 -29 -75 -32 -147 -32 -126
0 -223 43 -333 147 l-49 46 -30 -33 c-16 -18 -49 -54 -73 -81 l-42 -48 27 -32
c90 -104 255 -193 400 -215 193 -29 367 23 492 149 101 101 149 207 155 342
11 225 -107 392 -379 538 -297 160 -386 242 -402 366 -9 73 14 132 73 191 40
40 64 55 108 68 121 35 257 -4 392 -113 l62 -50 73 75 74 74 -50 46 c-88 82
-205 149 -320 185 -49 15 -186 17 -242 3z"/>
<path d="M3770 4689 c-25 -4 -62 -10 -83 -13 -93 -15 -225 -73 -316 -137 -210
-150 -362 -386 -396 -615 -4 -21 -8 -50 -11 -64 -6 -35 -6 -156 1 -215 5 -48
7 -61 21 -130 27 -137 119 -306 234 -429 47 -50 162 -146 176 -146 4 0 15 -6
23 -14 24 -20 150 -73 217 -91 139 -36 325 -40 484 -10 50 10 201 65 230 85
14 9 50 33 80 53 45 30 119 98 186 170 26 29 96 138 123 193 92 186 119 433
71 649 -14 62 -69 206 -86 226 -8 8 -14 19 -14 24 0 11 -80 121 -125 173 -115
130 -310 244 -476 277 -13 3 -37 8 -54 11 -46 9 -234 11 -285 3z m270 -232 c8
-2 29 -7 45 -11 94 -24 226 -106 308 -193 136 -144 197 -292 202 -488 4 -172
-33 -305 -121 -435 -78 -115 -157 -185 -274 -239 -103 -48 -181 -65 -305 -64
-119 0 -200 17 -295 60 -287 131 -452 465 -392 793 53 291 287 529 570 580 43
8 227 6 262 -3z"/>
<path d="M5888 4695 c-2 -1 -25 -5 -53 -8 -112 -12 -284 -78 -374 -144 -38
-28 -201 -193 -201 -204 0 -5 -4 -9 -8 -9 -4 0 -8 72 -7 160 l1 160 -115 0
-116 0 0 -1230 -1 -1231 116 3 115 3 1 465 c1 256 2 470 3 475 0 6 40 -27 88
-73 132 -125 266 -199 429 -238 73 -17 269 -24 339 -11 76 13 100 18 120 24
11 4 22 8 25 8 3 1 14 5 25 9 296 114 513 360 591 671 20 80 26 318 11 405
-66 368 -376 683 -737 750 -59 11 -244 22 -252 15z m160 -230 c150 -19 301
-99 417 -223 77 -82 159 -248 181 -366 14 -78 10 -220 -9 -296 -15 -57 -23
-82 -49 -140 -102 -224 -311 -384 -543 -416 -235 -33 -486 57 -641 230 -60 67
-125 188 -150 281 -36 131 -24 387 22 478 8 15 12 27 9 27 -2 0 7 21 22 48
116 209 297 341 515 375 85 13 131 14 226 2z"/>
</g>
</svg>
